<svg width="20" height="17" viewBox="0 0 20 17" fill="none" xmlns="http://www.w3.org/2000/svg">
<path d="M19.4617 1.26181C19.4317 1.12181 19.3617 0.691813 18.9617 0.361813C18.5317 0.0118129 17.9917 -0.00818769 17.8317 0.00181231C17.0917 0.0118123 16.2516 0.291814 11.3716 2.33181C9.77163 3.00181 6.51165 4.41182 1.70165 6.52182C0.961651 6.82182 0.111649 7.26181 0.0116489 8.04181C-0.128351 9.17181 1.02165 9.53181 1.95165 9.83181L2.31164 9.94181C3.03164 10.1818 4.35164 10.5718 5.10164 10.5918C5.81165 10.6118 6.54164 10.3418 7.34164 9.79181C8.54164 8.9818 9.53166 8.31181 10.3617 7.75181C10.2317 7.87181 10.1116 7.99181 10.0116 8.08181C9.59165 8.48181 9.29165 8.76182 9.23165 8.82182C9.11165 8.95182 8.98166 9.07181 8.86166 9.19181C8.31166 9.72181 7.75165 10.2718 7.82165 11.0618C7.89165 11.8118 8.53164 12.3118 9.00164 12.6218C9.68164 13.0718 10.2317 13.4518 10.7717 13.8218C11.3517 14.2218 11.9417 14.6218 12.7017 15.1218C12.8917 15.2418 13.0617 15.3718 13.2417 15.4918C13.9317 15.9918 14.6517 16.5018 15.5817 16.5018C15.6617 16.5018 15.7316 16.5018 15.8116 16.4918C16.4516 16.4318 17.2817 15.9818 17.6117 14.1718C18.1417 11.3218 19.2416 4.86182 19.5016 2.13182C19.5316 1.82182 19.5016 1.45182 19.4716 1.27182L19.4617 1.26181ZM18.0016 1.98181C17.7516 4.64181 16.6416 11.1618 16.1316 13.9018C15.9716 14.7918 15.7117 14.9918 15.6717 15.0018C15.2217 15.0318 14.7817 14.7518 14.1117 14.2718C13.9217 14.1418 13.7316 14.0018 13.5316 13.8618C12.7816 13.3718 12.2016 12.9718 11.6316 12.5718C11.0816 12.1918 10.5316 11.8218 9.84164 11.3618C9.42164 11.0818 9.34165 10.9318 9.32165 10.9318C9.36165 10.7918 9.69164 10.4718 9.91164 10.2618C10.0416 10.1318 10.1816 10.0018 10.3216 9.85182C10.3816 9.78182 10.6616 9.53181 11.0416 9.17181C14.9616 5.51181 15.0016 5.34181 15.0716 5.01181C15.1316 4.72181 15.0916 4.28181 14.7616 4.00181C14.3816 3.65181 13.9016 3.75181 13.7516 3.79181C13.5316 3.84181 13.4016 3.87182 6.50164 8.55182C5.98164 8.91181 5.55165 9.11181 5.14165 9.08181C4.75165 9.08181 3.84164 8.85181 2.78164 8.50181L2.41164 8.38182C2.19164 8.31182 1.93164 8.23181 1.72164 8.15181C1.84164 8.08181 2.02166 8.00181 2.27166 7.90181C2.27166 7.90181 2.28165 7.90181 2.29165 7.90181C7.10165 5.80181 10.3416 4.39181 11.9416 3.72181C16.1216 1.97181 17.3416 1.52181 17.8516 1.51181C17.8516 1.51181 17.9616 1.52182 17.9716 1.52182C17.9916 1.63182 18.0017 1.85182 17.9917 1.99182L18.0016 1.98181Z" fill="white"/>
</svg>
