<svg width="22" height="18" viewBox="0 0 22 18" fill="none" xmlns="http://www.w3.org/2000/svg">
<path d="M21.3444 2.17999C21.1744 1.96999 20.9144 1.88 20.6644 1.91C20.7644 1.71 20.8444 1.49999 20.9144 1.28999C21.0144 0.989993 20.9144 0.670001 20.6744 0.470001C20.4344 0.280001 20.0944 0.250004 19.8244 0.410004C19.2144 0.770004 18.5344 1.04001 17.8344 1.21001C16.9544 0.440007 15.7944 0 14.6044 0C11.9344 0 9.75438 2.14999 9.75438 4.78999C9.75438 4.81999 9.75438 4.85 9.75438 4.88C7.00438 4.52 4.48438 3.12999 2.73438 1.00999C2.57438 0.819995 2.33438 0.720006 2.09438 0.740005C1.85438 0.760005 1.63438 0.900001 1.50438 1.11C1.06438 1.85 0.844378 2.67 0.844378 3.53C0.844378 4.29 1.02437 5.01999 1.35437 5.67999C1.29437 5.69999 1.23437 5.72999 1.18437 5.75999C0.954375 5.88999 0.81438 6.16999 0.81438 6.42999C0.81438 7.81999 1.42438 9.10001 2.42438 9.99001C2.26438 10.19 2.20438 10.46 2.28438 10.7C2.70438 12 3.66438 13.03 4.87438 13.58C3.62438 14.14 2.20438 14.36 0.834384 14.2C0.484384 14.16 0.154375 14.37 0.0443754 14.7C-0.0756246 15.03 0.0543729 15.4 0.354373 15.58C2.34437 16.84 4.66437 17.51 7.05437 17.51C14.8244 17.51 19.4644 11.29 19.4644 5.27V5.11C20.1944 4.54 20.8344 3.86 21.3744 3.09C21.5644 2.82 21.5544 2.45 21.3444 2.19V2.17999ZM18.2644 4.13C18.0544 4.28 17.9344 4.52999 17.9544 4.78999C17.9644 4.94999 17.9644 5.09999 17.9644 5.25999C17.9644 10.54 13.8844 16 7.05437 16C5.93437 16 4.83438 15.83 3.78438 15.51C5.05438 15.22 6.24438 14.66 7.29438 13.85C7.54438 13.66 7.64438 13.32 7.54438 13.02C7.44438 12.72 7.16438 12.51 6.84438 12.5C5.81438 12.48 4.86438 12 4.26438 11.24C4.52438 11.21 4.78438 11.17 5.03438 11.1C5.37438 11.01 5.60438 10.7 5.59438 10.35C5.59438 10 5.33437 9.7 4.99437 9.63C3.82437 9.40001 2.90438 8.58 2.51438 7.5C2.80438 7.56 3.09437 7.6 3.38437 7.61C3.76437 7.63 4.02438 7.41 4.12438 7.09C4.22438 6.77 4.10437 6.42 3.82437 6.23C2.89437 5.62 2.33438 4.60001 2.33438 3.49001C2.33438 3.27001 2.35438 3.05 2.39438 2.84C4.55438 4.97 7.46437 6.26 10.5544 6.42C10.7844 6.42 11.0144 6.34 11.1644 6.16C11.3144 5.98 11.3744 5.75 11.3244 5.52C11.2644 5.25 11.2444 4.99 11.2444 4.75C11.2444 2.94 12.7444 1.46001 14.5944 1.46001C15.5344 1.46001 16.4044 1.83 17.0444 2.5C17.2244 2.68 17.4744 2.77 17.7244 2.72C17.7744 2.72 17.8144 2.7 17.8644 2.69C17.6544 2.89 17.5844 3.19 17.6744 3.47C17.7744 3.78 18.0644 3.99001 18.3844 3.99001C18.3844 3.99001 18.2944 4.06 18.2444 4.09L18.2644 4.13Z" fill="white"/>
</svg>
